<?xml version="1.0" encoding="UTF-8" standalone="no"?>
<svg
   xmlns:dc="http://purl.org/dc/elements/1.1/"
   xmlns:cc="http://creativecommons.org/ns#"
   xmlns:rdf="http://www.w3.org/1999/02/22-rdf-syntax-ns#"
   xmlns:svg="http://www.w3.org/2000/svg"
   xmlns="http://www.w3.org/2000/svg"
   xmlns:sodipodi="http://sodipodi.sourceforge.net/DTD/sodipodi-0.dtd"
   xmlns:inkscape="http://www.inkscape.org/namespaces/inkscape"
   version="1"
   viewBox="0 0 48 48"
   enable-background="new 0 0 48 48"
   id="svg2"
   inkscape:version="0.91 r13725"
   sodipodi:docname="cart.svg">
  <metadata
     id="metadata18">
    <rdf:RDF>
      <cc:Work
         rdf:about="">
        <dc:format>image/svg+xml</dc:format>
        <dc:type
           rdf:resource="http://purl.org/dc/dcmitype/StillImage" />
        <dc:title />
      </cc:Work>
    </rdf:RDF>
  </metadata>
  <defs
     id="defs16" />
  <sodipodi:namedview
     pagecolor="#ffffff"
     bordercolor="#666666"
     borderopacity="1"
     objecttolerance="10"
     gridtolerance="10"
     guidetolerance="10"
     inkscape:pageopacity="0"
     inkscape:pageshadow="2"
     inkscape:window-width="1301"
     inkscape:window-height="744"
     id="namedview14"
     showgrid="false"
     inkscape:zoom="4.9166667"
     inkscape:cx="-6.6101693"
     inkscape:cy="24"
     inkscape:window-x="65"
     inkscape:window-y="24"
     inkscape:window-maximized="1"
     inkscape:current-layer="svg2" />
  <path
     fill="#2E7D32"
     d="M25.4,5.6c-0.8-0.8-2-0.8-2.8,0l-12,12c-0.8,0.8-0.8,2,0,2.8C11,20.8,11.5,21,12,21s1-0.2,1.4-0.6l12-12 C26.2,7.6,26.2,6.4,25.4,5.6z"
     id="path4" />
  <path
     fill="#1B5E20"
     d="M37.4,17.6l-12-12c-0.8-0.8-2-0.8-2.8,0c-0.8,0.8-0.8,2,0,2.8l12,12C35,20.8,35.5,21,36,21s1-0.2,1.4-0.6 C38.2,19.6,38.2,18.4,37.4,17.6z"
     id="path6" />
  <path
     fill="#388E3C"
     d="M37.4,41H10.6c-1,0-1.8-0.7-2-1.6L5,21h38l-3.7,18.4C39.1,40.3,38.3,41,37.4,41z"
     id="path8" />
  <path
     fill="#4CAF50"
     d="M43,23H5c-1.1,0-2-0.9-2-2v-2c0-1.1,0.9-2,2-2h38c1.1,0,2,0.9,2,2v2C45,22.1,44.1,23,43,23z"
     id="path10" />
</svg>
