<?xml version="1.0" encoding="utf-8"?>
<!-- Generator: Adobe Illustrator 17.0.0, SVG Export Plug-In . SVG Version: 6.00 Build 0)  -->
<!DOCTYPE svg PUBLIC "-//W3C//DTD SVG 1.1//EN" "http://www.w3.org/Graphics/SVG/1.1/DTD/svg11.dtd">
<svg version="1.1" id="Layer_1" xmlns="http://www.w3.org/2000/svg" xmlns:xlink="http://www.w3.org/1999/xlink" x="0px" y="0px"
	 width="160px" height="65px" viewBox="21.021 11.378 160 65" enable-background="new 21.021 11.378 160 65" xml:space="preserve">
<path fill="#29ABE2" d="M40.624,74.289c0.982-0.084,1.866-0.246,2.45-0.354l0.318-0.058c2.31-0.411,5.058-3.024,6.396-6.078
	c1.447-3.302,1.232-6.704-0.605-9.579l-0.225-0.353l-0.344-0.234c-0.339-0.231-1.284-0.789-2.395-0.7
	c-0.743,0.063-1.409,0.411-1.873,0.981c-0.598,0.734-0.81,1.739-0.648,3.072c0.087,0.723,0.401,4.376-2.063,5.24
	c-0.164,0.057-0.439,0.132-0.823,0.163c-0.123,0.01-0.253,0.016-0.386,0.016c-0.48,0-2.114-0.087-2.967-1.214
	c-0.691-0.913-0.67-2.486,0.06-4.427c1.235-3.289,2.481-4.401,9.399-10.574l1.041-0.929c9.709-8.671,9.338-16.866,9.165-18.42
	l-0.018-0.158c-1.117-10.324-6.862-14.461-11.484-16.113c-2.71-0.969-5.424-1.353-8.028-1.134
	c-6.407,0.537-10.426,4.545-11.506,5.761c-2.693,3.033-6.221,10.097-2.366,17.332c2.689,5.048,6.843,7.216,9.417,7.008
	c1.07-0.09,1.951-0.608,2.418-1.422c0.459-0.801,0.467-1.799,0.019-2.74l-0.245-0.51l-0.473-0.313
	c-0.279-0.189-6.652-4.58-4.644-10.72c0.997-3.05,3.702-4.845,7.819-5.191c0.432-0.036,0.841-0.051,1.219-0.051
	c1.144,0,2.117,0.141,2.538,0.272l0.134,0.054c0.158,0.082,0.342,0.17,0.547,0.269c2.095,1.003,5.604,2.683,5.403,9.478
	c-0.179,6.028-3.637,8.706-6.689,11.067c-0.95,0.735-1.845,1.427-2.636,2.197l-0.641,0.616c-3.863,3.698-11.899,11.388-8.399,20.739
	C31.384,72.286,35.269,74.736,40.624,74.289z"/>
<g>
	<path fill="#333333" d="M79.271,27.73l-2.936,5.571c-1.568-1.239-3.165-1.86-4.789-1.861c-1.032-0.001-1.838,0.282-2.416,0.846
		c-0.482,0.458-0.723,0.963-0.723,1.515c-0.001,0.835,0.583,1.528,1.753,2.08c0.331,0.148,1.438,0.499,3.324,1.053
		c2.45,0.715,4.215,1.672,5.295,2.87c1.08,1.199,1.619,2.794,1.617,4.787c-0.003,3.553-1.215,6.157-3.638,7.812
		c-1.984,1.359-4.435,2.037-7.353,2.036c-3.483-0.003-6.751-1.047-9.806-3.136l3.142-5.773c2.187,1.873,4.341,2.81,6.461,2.811
		c1.294,0.001,2.237-0.328,2.83-0.986c0.468-0.525,0.702-1.09,0.702-1.696c0.001-0.754-0.306-1.349-0.917-1.787
		c-0.613-0.438-1.779-0.907-3.499-1.405c-2.684-0.769-4.467-1.511-5.348-2.225c-1.499-1.199-2.248-3.023-2.246-5.473
		c0.002-2.867,0.974-5.169,2.915-6.904c1.763-1.588,3.994-2.38,6.692-2.378C73.4,25.486,76.38,26.234,79.271,27.73z"/>
	<path fill="#333333" d="M92.355,36.805l10.572,0.007l0.006-10.641l7.33,0.004l-0.018,27.562l-7.33-0.004l0.006-11.347L92.35,42.379
		l-0.007,11.347l-7.33-0.005l0.018-27.562l7.33,0.005L92.355,36.805z"/>
	<path fill="#333333" d="M130.757,42.442l8.852,11.313l-9.126-0.006l-6.973-10.585l-0.006,10.58l-7.33-0.005l0.018-27.562
		l11.398,0.007c1.581,0.002,2.928,0.198,4.036,0.588c1.108,0.391,2.066,1.004,2.878,1.839c1.61,1.67,2.414,3.704,2.413,6.099
		c0,1.212-0.232,2.363-0.695,3.453c-0.461,1.09-1.084,1.971-1.87,2.645C133.471,41.562,132.273,42.106,130.757,42.442z
		 M123.513,38.52l1.362,0.001c1.39,0.001,2.436-0.241,3.139-0.724c0.386-0.283,0.712-0.676,0.972-1.181
		c0.261-0.504,0.393-1.006,0.393-1.503c0.002-0.499-0.13-1-0.392-1.506c-0.261-0.505-0.585-0.898-0.97-1.181
		c-0.701-0.485-1.747-0.728-3.137-0.729l-1.362-0.001L123.513,38.52z"/>
	<path fill="#333333" d="M158.742,32.262l-8.712-0.006l-0.002,4.604l8.239,0.006l-0.005,6.057l-8.239-0.006l-0.003,4.785
		l8.712,0.006l-0.003,6.057l-16.043-0.01l0.018-27.562l16.043,0.01L158.742,32.262z"/>
	<path fill="#333333" d="M179.432,32.276l-8.712-0.006l-0.002,4.604l8.239,0.006l-0.005,6.057l-8.239-0.006l-0.003,4.785
		l8.712,0.006l-0.003,6.057l-16.043-0.01l0.018-27.562l16.043,0.01L179.432,32.276z"/>
</g>
</svg>
