<?xml version="1.0" encoding="UTF-8" standalone="no"?>
<svg
   xmlns:dc="http://purl.org/dc/elements/1.1/"
   xmlns:cc="http://creativecommons.org/ns#"
   xmlns:rdf="http://www.w3.org/1999/02/22-rdf-syntax-ns#"
   xmlns:svg="http://www.w3.org/2000/svg"
   xmlns="http://www.w3.org/2000/svg"
   xmlns:sodipodi="http://sodipodi.sourceforge.net/DTD/sodipodi-0.dtd"
   xmlns:inkscape="http://www.inkscape.org/namespaces/inkscape"
   version="1"
   viewBox="0 0 48 48"
   enable-background="new 0 0 48 48"
   id="svg2"
   inkscape:version="0.91 r13725"
   sodipodi:docname="user.svg">
  <metadata
     id="metadata32">
    <rdf:RDF>
      <cc:Work
         rdf:about="">
        <dc:format>image/svg+xml</dc:format>
        <dc:type
           rdf:resource="http://purl.org/dc/dcmitype/StillImage" />
        <dc:title />
      </cc:Work>
    </rdf:RDF>
  </metadata>
  <defs
     id="defs30" />
  <sodipodi:namedview
     pagecolor="#ffffff"
     bordercolor="#666666"
     borderopacity="1"
     objecttolerance="10"
     gridtolerance="10"
     guidetolerance="10"
     inkscape:pageopacity="0"
     inkscape:pageshadow="2"
     inkscape:window-width="1301"
     inkscape:window-height="744"
     id="namedview28"
     showgrid="false"
     inkscape:zoom="4.9166667"
     inkscape:cx="22.474576"
     inkscape:cy="24"
     inkscape:window-x="65"
     inkscape:window-y="24"
     inkscape:window-maximized="1"
     inkscape:current-layer="g3455" />
  <g
     id="g3455"
     transform="translate(48.20339,0.20338979)">
    <g
       id="g3469"
       transform="matrix(1.7026194,0,0,1.6671187,-64.862867,-3.6854237)">
      <g
         style="fill:#ffa726"
         id="g3427">
        <circle
           cx="33"
           cy="19"
           r="2"
           id="circle3429" />
        <circle
           cx="15"
           cy="19"
           r="2"
           id="circle3431" />
      </g>
      <path
         style="fill:#ffb74d"
         inkscape:connector-curvature="0"
         d="m 33,13 c 0,-7.6 -18,-5 -18,0 0,1.1 0,5.9 0,7 0,5 4,9 9,9 5,0 9,-4 9,-9 0,-1.1 0,-5.9 0,-7 z"
         id="path3433" />
      <path
         style="fill:#424242"
         inkscape:connector-curvature="0"
         d="m 24,4 c -6.1,0 -10,4.9 -10,11 0,0.8 0,2.3 0,2.3 l 2,1.7 0,-5 12,-4 4,4 0,5 2,-1.7 c 0,0 0,-1.5 0,-2.3 0,-4 -1,-8 -6,-9 L 27,4 24,4 Z"
         id="path3435" />
    </g>
  </g>
</svg>
